HIERARCHY
ROOT hip
{
	OFFSET 0.000000 0.000000 0.000000 
	CHANNELS 6 Xposition Yposition Zposition Zrotation Xrotation Yrotation
	JOINT abdomen
	{
		OFFSET 0.000000 3.402643 0.000000 
		CHANNELS 3 Zrotation Xrotation Yrotation
		JOINT chest
		{
			OFFSET 0.000000 8.438565 -0.680529 
			CHANNELS 3 Zrotation Xrotation Yrotation
			JOINT neck
			{
				OFFSET 0.000000 10.207942 -0.272212 
				CHANNELS 3 Zrotation Xrotation Yrotation
				JOINT head
				{
					OFFSET 0.000000 3.130431 0.000000 
					CHANNELS 3 Zrotation Xrotation Yrotation
					End Site
					{
						OFFSET 0.000000 3.130435 0.000000 
					}
				}
			}
			JOINT lCollar
			{
				OFFSET 3.470700 6.669187 -0.816635 
				CHANNELS 3 Zrotation Xrotation Yrotation
				JOINT lShldr
				{
					OFFSET 3.198488 0.000000 0.000000 
					CHANNELS 3 Zrotation Xrotation Yrotation
					JOINT lForeArm
					{
						OFFSET 10.139888 0.000000 0.000000 
						CHANNELS 3 Zrotation Xrotation Yrotation
						JOINT lHand
						{
							OFFSET 8.370511 0.000000 0.000000 
							CHANNELS 3 Zrotation Xrotation Yrotation
							End Site
							{
								OFFSET 4.083176 0.000000 0.000000 
							}
						}
					}
				}
			}
			JOINT rCollar
			{
				OFFSET -3.470700 6.669187 -0.816635 
				CHANNELS 3 Zrotation Xrotation Yrotation
				JOINT rShldr
				{
					OFFSET -3.198488 0.000000 0.000000 
					CHANNELS 3 Zrotation Xrotation Yrotation
					JOINT rForeArm
					{
						OFFSET -10.139888 0.000000 0.000000 
						CHANNELS 3 Zrotation Xrotation Yrotation
						JOINT rHand
						{
							OFFSET -8.370511 0.000000 0.000000 
							CHANNELS 3 Zrotation Xrotation Yrotation
							End Site
							{
								OFFSET -4.083176 0.000000 0.000000 
							}
						}
					}
				}
			}
		}
	}
	JOINT lThigh
	{
		OFFSET 5.308129 -1.633274 1.361059 
		CHANNELS 3 Zrotation Xrotation Yrotation
		JOINT lShin
		{
			OFFSET -2.041588 -20.007561 0.000000 
			CHANNELS 3 Zrotation Xrotation Yrotation
			JOINT lFoot
			{
				OFFSET 0.000000 -19.190928 -1.224953 
				CHANNELS 3 Zrotation Xrotation Yrotation
				End Site
				{
					OFFSET 0.000000 -2.449906 4.627600 
				}
			}
		}
	}
	JOINT rThigh
	{
		OFFSET -5.308129 -1.633274 1.361059 
		CHANNELS 3 Zrotation Xrotation Yrotation
		JOINT rShin
		{
			OFFSET 2.041588 -20.007561 0.000000 
			CHANNELS 3 Zrotation Xrotation Yrotation
			JOINT rFoot
			{
				OFFSET 0.000000 -19.190928 -1.224953 
				CHANNELS 3 Zrotation Xrotation Yrotation
				End Site
				{
					OFFSET 0.000000 -2.449906 4.627600 
				}
			}
		}
	}
}
MOTION
Frames: 16
Frame Time: 0.033333
0.000000 48.013634 0.291666 -0.000000 -0.000010 -0.000000 -0.000000 -0.000002 -0.000000 -2.764368 -4.984453 -0.055291 -0.000000 -0.000003 -0.000000 -0.000000 0.000001 -0.000000 -6.726709 -0.395686 3.278043 -69.521835 16.349010 11.078271 -1.530817 0.646794 -18.368719 5.932204 -0.060074 -3.367898 -31.181067 6.530485 7.713414 -1.564386 -62.058727 11.756608 5.003017 -16.160784 16.223440 -6.002441 -0.034738 3.336427 2.846489 -7.558236 0.907691 -2.544223 14.682931 -0.655447 -0.642505 -7.628141 0.326306 -4.381215 -7.522904 -0.504117 2.330222 14.582493 -0.259914 1.215871 -7.748020 -1.462678 
0.000000 48.013718 0.291666 -0.000000 -0.000010 -0.000000 -0.000000 -0.000002 -0.000000 -2.490611 -5.170914 -0.029722 -0.000000 -0.000003 -0.000000 -0.000000 0.000001 -0.000000 -7.096067 -0.446688 2.800635 -70.115578 16.238073 11.143230 -2.354620 0.960718 -18.174795 5.932204 -0.060074 -3.367898 -31.036922 6.706305 6.841337 -2.078118 -61.017193 15.026200 3.034049 -16.423586 21.150915 -5.794916 0.517145 -3.486512 2.834310 -7.562826 0.906307 -2.520910 14.678959 -0.600521 -0.673679 -7.481970 0.232614 -4.381492 -7.532972 -0.515081 2.189530 14.615069 -0.277871 1.322278 -7.657935 -1.432570 
0.000000 48.013802 0.291666 -0.000000 -0.000010 -0.000000 -0.000000 -0.000002 -0.000000 -2.148232 -5.406381 -0.007186 -0.000000 -0.000003 -0.000000 -0.000000 0.000001 -0.000000 -7.544638 -0.507488 2.216976 -70.872299 16.099657 11.216763 -3.420918 1.358529 -17.937641 5.932204 -0.060074 -3.367898 -30.861338 6.922047 5.756042 -3.027575 -59.626827 18.854210 0.584180 -17.444523 27.020666 -5.443279 1.212268 -8.917963 2.815634 -7.583899 0.866852 -2.535298 14.780005 -0.473228 -0.632574 -7.617520 0.114970 -4.381767 -7.543026 -0.526044 2.209569 14.631860 -0.280374 1.349633 -7.593984 -1.395214 
0.000000 48.013893 0.291666 -0.000000 -0.000010 -0.000000 -0.000000 -0.000002 -0.000000 -1.864471 -5.631803 0.021727 -0.000000 -0.000003 -0.000000 -0.000000 0.000001 -0.000000 -7.995347 -0.557702 1.605363 -71.512672 15.980964 11.281216 -4.316572 1.683052 -17.686546 5.932204 -0.060074 -3.367898 -30.695087 7.094096 4.719795 -4.177381 -58.311420 21.938702 -0.957905 -18.655659 33.179867 -5.244785 1.990096 -6.417175 2.846489 -7.558236 0.907691 -2.584821 14.747454 -0.592183 -0.621627 -7.696510 0.303324 -4.381215 -7.522904 -0.504117 2.330219 14.582498 -0.259914 1.215869 -7.748020 -1.462680 
0.000000 48.013985 0.291666 -0.000000 -0.000010 -0.000000 -0.000000 -0.000002 -0.000000 -1.786579 -5.827262 0.033092 -0.000000 -0.000003 -0.000000 -0.000000 0.000001 -0.000000 -8.379835 -0.576349 1.004804 -71.727341 15.933072 11.278486 -4.646769 1.783543 -17.448366 5.932204 -0.060074 -3.367898 -30.572941 7.122899 3.979265 -4.913045 -57.654362 23.239920 -0.318846 -18.672068 39.568871 -5.416501 2.760318 2.167567 2.826827 -7.587368 0.898160 -2.523925 14.718752 -0.581205 -0.576773 -7.598810 0.243485 -4.390728 -7.531802 -0.476875 2.279803 14.611088 -0.281237 1.243001 -7.657117 -1.497770 
0.000000 48.014072 0.291666 -0.000000 -0.000010 -0.000000 -0.000000 -0.000002 -0.000000 -2.022668 -5.963103 0.004627 -0.000000 -0.000003 -0.000000 -0.000000 0.000001 -0.000000 -8.648166 -0.583670 0.434482 -71.309090 16.006180 11.201257 -4.108755 1.545703 -17.223068 5.932204 -0.060074 -3.367898 -30.369913 6.950092 3.702276 -4.748689 -58.038788 22.113466 2.489148 -16.246544 45.126057 -5.924574 3.321738 12.791716 2.824689 -7.514406 0.900425 -2.553413 14.650313 -0.692687 -0.595577 -7.568748 0.364619 -4.380933 -7.512851 -0.493153 2.269792 14.602733 -0.279986 1.349311 -7.692484 -1.392305 
0.000000 48.014160 0.291666 -0.000000 -0.000010 -0.000000 -0.000000 -0.000002 -0.000000 -2.464949 -6.058883 -0.055258 -0.000000 -0.000003 -0.000000 -0.000000 0.000001 -0.000000 -8.799704 -0.572492 -0.086855 -70.447250 16.145983 11.066695 -2.949354 1.091007 -17.039267 5.932204 -0.060074 -3.367898 -30.170687 6.640524 3.809574 -4.021069 -59.128910 19.223907 5.203351 -13.130296 45.408978 -6.456126 3.590101 21.379423 2.816072 -7.517670 0.899787 -2.543925 14.663166 -0.655185 -0.632447 -7.628227 0.302590 -4.390728 -7.531802 -0.476875 2.260403 14.625301 -0.317292 1.347049 -7.733415 -1.372747 
0.000000 48.014248 0.291666 -0.000000 -0.000010 -0.000000 -0.000000 -0.000002 -0.000000 -2.956450 -6.144218 -0.112134 -0.000000 -0.000003 -0.000000 -0.000000 0.000001 -0.000000 -8.853431 -0.546111 -0.559686 -69.414528 16.328226 10.924212 -1.540077 0.544297 -16.874357 5.932204 -0.060074 -3.367898 -30.032413 6.304986 4.146596 -3.274698 -60.450665 15.530402 6.704621 -12.366073 37.448662 -6.615878 3.683698 24.400124 2.826827 -7.587368 0.898160 -2.523925 14.718752 -0.581205 -0.576773 -7.598810 0.243485 -4.380933 -7.512851 -0.493153 2.269793 14.602733 -0.279986 1.349311 -7.692484 -1.392305 
0.000000 48.014336 0.291666 -0.000000 -0.000010 -0.000000 -0.000000 -0.000002 -0.000000 -3.349944 -6.239401 -0.159415 -0.000000 -0.000003 -0.000000 -0.000000 0.000001 -0.000000 -8.818693 -0.511436 -0.984379 -68.492470 16.486273 10.810805 -0.260656 0.068605 -16.730749 5.932204 -0.060074 -3.367898 -30.016659 6.021951 4.574008 -2.734442 -61.583977 12.304214 6.685455 -14.019297 25.668589 -6.259875 3.649674 21.109875 2.824689 -7.514406 0.900425 -2.553413 14.650313 -0.692687 -0.644286 -7.530654 0.299838 -4.390728 -7.531802 -0.476875 2.260403 14.625301 -0.317292 1.347049 -7.733418 -1.372745 
0.000000 48.014427 0.291666 -0.000000 -0.000010 -0.000000 -0.000000 -0.000002 -0.000000 -3.488527 -6.394472 -0.184515 -0.000000 -0.000003 -0.000000 -0.000000 0.000001 -0.000000 -8.714856 -0.476592 -1.351490 -67.953438 16.586039 10.775640 0.506752 -0.218703 -16.642115 5.932204 -0.060074 -3.367898 -30.178728 5.913105 4.926139 -2.344627 -62.236191 11.038716 5.003017 -16.160784 16.223440 -5.625104 3.456292 13.794912 2.816072 -7.517670 0.899787 -2.543678 14.643736 -0.645164 -0.620309 -7.657415 0.306766 -4.378900 -7.461555 -0.555621 2.229311 14.537979 -0.226714 1.291877 -7.682873 -1.360973 
0.000000 48.014511 0.291666 -0.000000 -0.000010 -0.000000 -0.000000 -0.000002 -0.000000 -3.273740 -6.610381 -0.162425 -0.000000 -0.000003 -0.000000 -0.000000 0.000001 -0.000000 -8.551718 -0.442357 -1.670786 -67.997894 16.571541 10.836042 0.485370 -0.217402 -16.612629 5.932204 -0.060074 -3.367898 -30.549465 6.033621 5.098006 -1.903594 -62.207420 12.946070 2.820877 -17.183397 13.976634 -5.018843 3.129323 5.350486 2.834310 -7.562826 0.906307 -2.582323 14.739319 -0.553384 -0.651465 -7.501350 0.213166 -4.380192 -7.502011 -0.491781 2.278873 14.542062 -0.282349 1.273554 -7.581734 -1.383183 
0.000000 48.014595 0.291666 -0.000000 -0.000010 -0.000000 -0.000000 -0.000002 -0.000000 -2.823116 -6.886243 -0.114149 -0.000000 -0.000003 -0.000000 -0.000000 0.000001 -0.000000 -8.358333 -0.409732 -1.922844 -68.501511 16.487339 10.974059 -0.150017 0.008843 -16.641392 5.932204 -0.060074 -3.367898 -30.698349 6.329275 5.128825 -1.680132 -61.576900 16.933327 0.905227 -17.538919 17.821650 -4.633323 2.779118 -1.497463 2.826827 -7.587368 0.898160 -2.473640 14.728719 -0.540060 -0.646878 -7.589144 0.199476 -4.380192 -7.502011 -0.491781 2.279384 14.572319 -0.301392 1.257853 -7.604679 -1.442018 
0.000000 48.014683 0.291666 -0.000000 -0.000010 -0.000000 -0.000000 -0.000002 -0.000000 -2.303236 -7.181751 -0.043956 -0.000000 -0.000003 -0.000000 -0.000000 0.000001 -0.000000 -8.134850 -0.382668 -2.107627 -69.225601 16.355906 11.129635 -1.130242 0.377191 -16.680494 5.932204 -0.060074 -3.367898 -30.720800 6.704764 5.064641 -1.972066 -60.542175 21.472939 -0.474385 -17.992424 25.023411 -4.511572 2.624773 -4.662220 2.816072 -7.517670 0.899787 -2.543678 14.643736 -0.645164 -0.653783 -7.638135 0.300273 -4.390728 -7.531802 -0.476875 2.321183 14.625168 -0.306691 1.298897 -7.739541 -1.389405 
0.000000 48.014767 0.291666 -0.000000 -0.000010 -0.000000 -0.000000 -0.000002 -0.000000 -1.891168 -7.495961 0.006784 -0.000000 -0.000003 -0.000000 -0.000000 0.000001 -0.000000 -7.910856 -0.363701 -2.234539 -69.966194 16.223099 11.244236 -2.188028 0.758408 -16.715824 5.932204 -0.060074 -3.367898 -30.729389 7.032408 4.948991 -2.846226 -59.475044 25.222521 -1.136605 -18.707542 32.830391 -4.622161 2.784474 -2.739664 2.846489 -7.558236 0.907691 -2.584818 14.747454 -0.592184 -0.596399 -7.764630 0.313757 -4.378607 -7.451471 -0.544652 2.319210 14.504786 -0.249985 1.211499 -7.682417 -1.428653 
0.000000 48.014854 0.291666 -0.000000 -0.000010 -0.000000 -0.000000 -0.000002 -0.000000 -1.754433 -7.779599 0.026114 -0.000000 -0.000003 -0.000000 -0.000000 0.000001 -0.000000 -7.685964 -0.346413 -2.284120 -70.497955 16.126427 11.289566 -3.036513 1.059979 -16.715651 5.932204 -0.060074 -3.367898 -30.725000 7.204300 4.840157 -4.071356 -58.819435 27.142662 -1.035050 -19.176956 38.573406 -5.031428 3.203580 3.661170 2.846489 -7.558236 0.907691 -2.615087 14.701612 -0.616109 -0.597259 -7.696287 0.312510 -4.378607 -7.451471 -0.544652 2.319211 14.504786 -0.249986 1.211499 -7.682417 -1.428653 
0.000000 48.014935 0.291666 -0.000000 -0.000010 -0.000000 -0.000000 -0.000002 -0.000000 -2.061244 -8.022212 -0.024458 -0.000000 -0.000003 -0.000000 -0.000000 0.000001 -0.000000 -7.499570 -0.336851 -2.256053 -70.620079 16.103048 11.186419 -3.425490 1.199455 -16.673302 5.932204 -0.060074 -3.367898 -30.705839 7.117708 4.771126 -5.295334 -59.071079 26.301605 -0.318846 -18.672068 39.568871 -5.792484 3.695697 13.423665 2.824422 -7.504118 0.899373 -2.533376 14.623291 -0.714589 -0.647795 -7.530192 0.362150 -4.380933 -7.512851 -0.493153 2.269792 14.602733 -0.279986 1.349311 -7.692484 -1.392305 
